<?xml version="1.0" encoding="UTF-8"?>
<svg enable-background="new 0 0 512 512" version="1.1" viewBox="0 0 512 512" xml:space="preserve" xmlns="http://www.w3.org/2000/svg">
		<g fill="#000000">
			<path d="m205.87 364.8c-5.754 0.608-15.501 1.389-27.658 1.389-31.076 0-77.727-5.134-112.69-31.359-30.586 15.504-54.803 41.072-65.516 53.571 15.983 18.648 62.023 66.389 114.43 66.388 52.577 0 98.505-47.727 114.44-66.377-4.981-5.814-12.89-14.462-23.008-23.612z"/>
			<path d="m446.24 334.71c-34.981 26.324-81.723 31.476-112.84 31.476-11.916 0-21.519-0.75-27.316-1.353-10.091 9.129-17.982 17.757-22.959 23.564 15.982 18.648 62.018 66.389 114.43 66.388 52.578 1e-3 98.508-47.726 114.44-66.375-10.731-12.524-35.048-38.202-65.755-53.7z"/>
			<path d="m198.42 340.73c0.055-0.718 0.109-1.48 0.164-2.27-27.465-32.128-55.905-77.85-55.905-129.44 0-4.031 0.189-8.023 0.523-11.979-37.29-20.776-86.309-19.707-106.61-18.146-1.886 24.489-3.088 90.803 33.973 127.86 37.056 37.058 103.37 35.856 127.86 33.972z"/>
			<path d="m313.09 339.31c0.034 0.48 0.068 0.974 0.102 1.426 24.474 1.885 90.793 3.092 127.86-33.972 37.179-37.176 35.908-103.4 33.99-127.86-20.149-1.554-68.666-2.629-105.87 17.723 0.357 4.093 0.556 8.224 0.556 12.398 0 52.043-28.943 98.115-56.63 130.28z"/>
			<path d="m256.19 57.217c-22.488 18.886-88.917 80.701-88.917 151.81 0 71.11 66.429 132.93 88.917 151.81 22.479-18.876 88.922-80.696 88.922-151.81 0-71.108-66.433-132.92-88.922-151.81z"/>
		</g>
</svg>
