<?xml version="1.0" encoding="iso-8859-1"?>
<!-- Generator: Adobe Illustrator 19.0.0, SVG Export Plug-In . SVG Version: 6.00 Build 0)  -->
<svg version="1.1" id="Capa_1" xmlns="http://www.w3.org/2000/svg" xmlns:xlink="http://www.w3.org/1999/xlink" x="0px" y="0px"
	 viewBox="0 0 512 512" style="enable-background:new 0 0 512 512;" xml:space="preserve">
<g>
	<g>
		<rect x="166" y="360" width="30" height="62"/>
	</g>
</g>
<g>
	<g>
		<rect x="226" y="360" width="30" height="62"/>
	</g>
</g>
<g>
	<g>
		<path d="M226,300v30c21.273,0,38.089,0,60,0v-30H226z"/>
	</g>
</g>
<g>
	<g>
		<path d="M211,90c-8.276,0-15,6.724-15,15s6.724,15,15,15s15-6.724,15-15S219.276,90,211,90z"/>
	</g>
</g>
<g>
	<g>
		<path d="M251.62,244.409C242.676,235.419,226,241.182,226,255v15h15c8.34,0,15-6.728,15-15
			C256,250.986,254.447,247.222,251.62,244.409z"/>
	</g>
</g>
<g>
	<g>
		<path d="M136,300v30c21.911,0,38.727,0,60,0v-30H136z"/>
	</g>
</g>
<g>
	<g>
		<path d="M181,240c-8.34,0-15,6.728-15,15c0,8.34,6.728,15,15,15h15v-15C196,246.66,189.272,240,181,240z"/>
	</g>
</g>
<g>
	<g>
		<path d="M391,60h-67.5L283.001,6C280.3,2.1,275.799,0,271,0H151c-4.799,0-9.3,2.1-12.001,6l-90,120c-1.8,2.699-2.999,5.7-2.999,9
			v362c0,8.401,6.599,15,15,15h300c8.401,0,15-6.599,15-15V209.399C339.101,206.4,303.701,193.2,273.999,171l-38.091-28.57
			C228.769,147.197,220.21,150,211,150c-24.814,0-45-20.186-45-45c0-24.814,20.186-45,45-45c24.814,0,45,20.186,45,45
			c0,4.667-0.916,9.082-2.241,13.319L292,147.001c24.6,18.3,53.699,29.399,84,32.098V135c0-3.3-1.199-6.301-2.999-9L346,90h45
			c24.901,0,45,20.099,45,45s-20.099,45-45,45c-5.099,0-10.201-0.3-15-0.901v30.3c4.799,0.3,9.901,0.601,15,0.601
			c41.4,0,75-33.6,75-75C466,93.6,432.4,60,391,60z M210.993,222.003c17.126-15.441,45.394-15.306,61.838,1.196
			C281.313,231.65,286,242.959,286,255c0,5.213-1.04,10.232-2.726,15H301c8.291,0,15,6.709,15,15v60c0,8.291-6.709,15-15,15h-15v77
			c0,8.291-6.709,15-15,15H151c-8.291,0-15-6.709-15-15v-77h-15c-8.291,0-15-6.709-15-15v-60c0-8.291,6.709-15,15-15h17.723
			c-1.686-4.766-2.723-9.785-2.723-15c0-12.041,4.688-23.35,13.198-31.831C165.575,206.735,193.806,206.543,210.993,222.003z"/>
	</g>
</g>
<g>
</g>
<g>
</g>
<g>
</g>
<g>
</g>
<g>
</g>
<g>
</g>
<g>
</g>
<g>
</g>
<g>
</g>
<g>
</g>
<g>
</g>
<g>
</g>
<g>
</g>
<g>
</g>
<g>
</g>
</svg>
