<?xml version="1.0" encoding="UTF-8"?>
<svg width="682pt" height="682pt" viewBox="-21 -117 682.67 682" xmlns="http://www.w3.org/2000/svg">
<path d="m626.81 64.035c-7.375-27.418-28.992-49.031-56.406-56.414-50.082-13.703-250.41-13.703-250.41-13.703s-200.32 0-250.41 13.184c-26.887 7.375-49.031 29.52-56.406 56.934-13.18 50.078-13.18 153.93-13.18 153.93s0 104.38 13.18 153.93c7.3828 27.414 28.992 49.027 56.41 56.41 50.605 13.707 250.41 13.707 250.41 13.707s200.32 0 250.41-13.184c27.418-7.3789 49.031-28.992 56.414-56.406 13.176-50.082 13.176-153.93 13.176-153.93s0.52734-104.38-13.184-154.46zm-370.6 249.88v-191.89l166.59 95.945z"/>
</svg>
